<svg xmlns="http://www.w3.org/2000/svg" viewBox="0 0 32 32" fill="none">
  <rect width="32" height="32" rx="8" fill="url(#air)"/>
  <path d="M16 9a5 5 0 0 1 4.5 2.8 4 4 0 0 1 .5 2.2v6a4 4 0 0 1-.5 2.2A5 5 0 0 1 16 23a5 5 0 0 1-4.5-2.8 4 4 0 0 1-.5-2.2v-6a4 4 0 0 1 .5-2.2A5 5 0 0 1 16 9z" fill="white" opacity=".95"/>
  <circle cx="12" cy="15" r="1.2" fill="url(#air)"/>
  <circle cx="16" cy="15" r="1.2" fill="url(#air)"/>
  <circle cx="20" cy="15" r="1.2" fill="url(#air)"/>
  <defs>
    <linearGradient id="air" x1="0" y1="0" x2="32" y2="32" gradientUnits="userSpaceOnUse">
      <stop stop-color="#6366f1"/>
      <stop offset="1" stop-color="#8b5cf6"/>
    </linearGradient>
  </defs>
</svg>
